<svg width="14" height="14" viewBox="0 0 14 14" fill="none" xmlns="http://www.w3.org/2000/svg">
<path d="M13.0317 5.44234L11.865 4.859C11.6492 4.754 11.3808 4.83567 11.2758 5.0515C11.165 5.27317 11.2525 5.53567 11.4683 5.64067L12.3958 6.1015V8.89567L10.2083 8.9015V2.9165C10.2083 1.74984 9.42666 1.1665 8.45832 1.1665H3.79166C2.82332 1.1665 2.04166 1.74984 2.04166 2.9165V12.3957H1.16666C0.92749 12.3957 0.729156 12.594 0.729156 12.8332C0.729156 13.0723 0.92749 13.2707 1.16666 13.2707H11.0833C11.3225 13.2707 11.5208 13.0723 11.5208 12.8332C11.5208 12.594 11.3225 12.3957 11.0833 12.3957H10.2083V9.7765L12.8333 9.77067C13.0783 9.77067 13.2708 9.57234 13.2708 9.33317V5.83317C13.2708 5.66984 13.1775 5.51817 13.0317 5.44234ZM3.49999 4.019C3.49999 3.20817 3.99582 2.9165 4.60249 2.9165H7.65332C8.25416 2.9165 8.74999 3.20817 8.74999 4.019V4.7365C8.74999 5.5415 8.25416 5.83317 7.64749 5.83317H4.60249C3.99582 5.83317 3.49999 5.5415 3.49999 4.73067V4.019ZM3.79166 7.14567H5.54166C5.78082 7.14567 5.97916 7.344 5.97916 7.58317C5.97916 7.82234 5.78082 8.02067 5.54166 8.02067H3.79166C3.55249 8.02067 3.35416 7.82234 3.35416 7.58317C3.35416 7.344 3.55249 7.14567 3.79166 7.14567Z" fill="#90A3BF"/>
</svg>
