<svg width="14" height="14" viewBox="0 0 14 14" fill="none" xmlns="http://www.w3.org/2000/svg">
<path d="M5.24999 1.1665C3.72166 1.1665 2.47916 2.409 2.47916 3.93734C2.47916 5.4365 3.65166 6.64984 5.17999 6.70234C5.22666 6.6965 5.27332 6.6965 5.30832 6.70234C5.31999 6.70234 5.32582 6.70234 5.33749 6.70234C5.34332 6.70234 5.34332 6.70234 5.34916 6.70234C6.84249 6.64984 8.01499 5.4365 8.02082 3.93734C8.02082 2.409 6.77832 1.1665 5.24999 1.1665Z" fill="#90A3BF"/>
<path d="M8.21334 8.25418C6.58584 7.16918 3.93167 7.16918 2.29251 8.25418C1.55167 8.75001 1.14334 9.42085 1.14334 10.1383C1.14334 10.8558 1.55167 11.5208 2.28667 12.0108C3.10334 12.5592 4.17667 12.8333 5.25001 12.8333C6.32334 12.8333 7.39667 12.5592 8.21334 12.0108C8.94834 11.515 9.35668 10.85 9.35668 10.1267C9.35084 9.40918 8.94834 8.74418 8.21334 8.25418Z" fill="#90A3BF"/>
<path d="M11.6608 4.28156C11.7542 5.41323 10.9492 6.4049 9.835 6.53906C9.82917 6.53906 9.82917 6.53906 9.82334 6.53906H9.80583C9.77083 6.53906 9.73583 6.53906 9.70667 6.55073C9.14083 6.57989 8.62167 6.39906 8.23083 6.06656C8.83167 5.5299 9.17584 4.7249 9.10584 3.8499C9.065 3.3774 8.90167 2.94573 8.65667 2.57823C8.87834 2.4674 9.135 2.3974 9.3975 2.37406C10.5408 2.2749 11.5617 3.12656 11.6608 4.28156Z" fill="#90A3BF"/>
<path d="M12.8275 9.67757C12.7808 10.2434 12.4192 10.7334 11.8125 11.0659C11.2292 11.3867 10.4942 11.5384 9.76499 11.5209C10.185 11.1417 10.43 10.6692 10.4767 10.1676C10.535 9.44424 10.1908 8.75007 9.5025 8.1959C9.11166 7.88674 8.65666 7.64173 8.16083 7.4609C9.44999 7.08757 11.0717 7.3384 12.0692 8.1434C12.6058 8.57507 12.88 9.11757 12.8275 9.67757Z" fill="#90A3BF"/>
</svg>
