<svg width="16" height="16" viewBox="0 0 16 16" fill="none" xmlns="http://www.w3.org/2000/svg">
<path fill-rule="evenodd" clip-rule="evenodd" d="M0.666626 7.33333C0.666626 3.83552 3.50214 1 6.99996 1C9.84803 1 12.2569 2.87982 13.0536 5.46659C12.3746 5.1666 11.6234 5 10.8333 5C10.014 5 9.23662 5.17912 8.53807 5.50034C8.40581 5.38258 8.232 5.31112 8.04163 5.31112C7.62743 5.31112 7.29163 5.64942 7.29163 6.06668C7.29163 6.13681 7.30111 6.2047 7.31885 6.26913C6.10566 7.278 5.33329 8.7988 5.33329 10.5C5.33329 11.6622 5.69375 12.7401 6.30896 13.6282C5.90876 13.583 5.50516 13.502 5.09896 13.387L3.06475 14.2607C2.72879 14.405 2.34086 14.3545 2.05311 14.1289C1.76537 13.9033 1.62368 13.5386 1.68364 13.1779L2.00734 11.2305C1.16783 10.1562 0.666626 8.80238 0.666626 7.33333ZM13.3311 7.16469L13.3323 7.21938C13.342 7.77157 12.9023 8.22714 12.3501 8.23691C11.8313 8.24609 11.3977 7.85841 11.3391 7.35347L8.66663 7.66667L8.13434 11.5927C8.54996 11.6489 8.9014 11.9649 8.98286 12.3997C9.08456 12.9426 8.72694 13.4651 8.1841 13.5668C8.1362 13.5757 8.08823 13.5841 8.04019 13.5919C7.19666 12.8294 6.66663 11.7266 6.66663 10.5C6.66663 8.19881 8.5321 6.33333 10.8333 6.33333C11.7703 6.33333 12.6351 6.64263 13.3311 7.16469ZM5.04163 6.82225C5.45583 6.82225 5.79163 6.48398 5.79163 6.06668C5.79163 5.64942 5.45583 5.31112 5.04163 5.31112C4.62743 5.31112 4.29163 5.64942 4.29163 6.06668C4.29163 6.48398 4.62743 6.82225 5.04163 6.82225Z" fill="white"/>
<mask id="path-2-inside-1_1_46414" fill="white">
<path fill-rule="evenodd" clip-rule="evenodd" d="M14.0009 11.9907L14.3334 13.9998L12.9207 13.3096"/>
</mask>
<path fill-rule="evenodd" clip-rule="evenodd" d="M14.0009 11.9907L14.3334 13.9998L12.9207 13.3096" fill="white"/>
<path d="M14.3334 13.9998L14.1139 14.449L14.985 14.8746L14.8267 13.9181L14.3334 13.9998ZM13.5076 12.0724L13.8401 14.0814L14.8267 13.9181L14.4941 11.9091L13.5076 12.0724ZM14.5529 13.5505L13.1401 12.8603L12.7012 13.7588L14.1139 14.449L14.5529 13.5505Z" fill="white" mask="url(#path-2-inside-1_1_46414)"/>
<path d="M14.0009 11.9907L14.3334 13.9998L12.9207 13.3096" stroke="white" stroke-width="2" stroke-linecap="round" stroke-linejoin="round"/>
<path fill-rule="evenodd" clip-rule="evenodd" d="M13.3431 12.7941C13.3843 12.8279 13.4221 12.8672 13.4554 12.912C13.6752 13.2073 13.6139 13.625 13.3185 13.8448C12.6247 14.3611 11.7637 14.6668 10.8333 14.6668C8.5321 14.6668 6.66663 12.8014 6.66663 10.5002C6.66663 8.19897 8.5321 6.3335 10.8333 6.3335C13.1345 6.3335 15 8.19897 15 10.5002C15 11.1337 14.8581 11.7361 14.6037 12.2755C14.4467 12.6085 14.0494 12.7511 13.7164 12.5941C13.6658 12.5702 13.6196 12.5408 13.5782 12.507L13.3431 12.7941ZM11.8958 10.2668C11.5851 10.2668 11.3333 10.0131 11.3333 9.70013C11.3333 9.38716 11.5851 9.13346 11.8958 9.13346C12.2065 9.13346 12.4583 9.38716 12.4583 9.70013C12.4583 10.0131 12.2065 10.2668 11.8958 10.2668ZM9.08329 9.70013C9.08329 10.0131 9.33513 10.2668 9.64579 10.2668C9.95646 10.2668 10.2083 10.0131 10.2083 9.70013C10.2083 9.38716 9.95646 9.13346 9.64579 9.13346C9.33513 9.13346 9.08329 9.38716 9.08329 9.70013Z" fill="white"/>
</svg>
